<svg width="112" height="84" viewBox="0 0 112 84" fill="none" xmlns="http://www.w3.org/2000/svg">
<g id="Vector 1">
<path d="M88.7462 7.62976C93.6325 10.3378 98.3983 16.3097 102.361 27.0604C103.187 29.3015 103.704 31.3447 103.954 33.2045C106.098 27.6681 107.495 20.2721 106.899 11.9389C105.791 -3.56567 93.273 -0.279326 88.7462 7.62976Z" fill="#547871"/>
<path d="M108.412 71.6651C114.894 64.3761 107.573 42.4332 104.128 35.377C104.112 34.6823 104.055 33.9585 103.954 33.2045C103.704 31.3447 103.187 29.3015 102.361 27.0604C98.3983 16.3097 93.6325 10.3378 88.7462 7.62976C85.5443 5.8552 82.2906 5.48218 79.1774 6.0844C74.0017 -1.83048 60.7174 2.33891 58.6194 9.87817C4.78737 1.35457 0.78702 43.905 1.00799 83L12.3533 83C12.3533 65 17.3453 41.8721 19.1606 83L28.9933 83C27.5 51 59 51 57.7353 83H66.0385C67.5512 64.8576 71.0305 41.8721 72.8457 83H81.1828C83.4517 83 81.1828 69.0241 81.1828 66C81.1828 62.9759 80.4263 50.0304 80.4263 50.0304C88.0127 50.7669 97.2471 50.1747 101.604 44.4493C105.876 51.1023 107.655 63.3488 105.386 67.129C100.848 67.885 102.361 78.4694 108.412 71.6651Z" fill="#547871"/>
<path d="M81.1828 12.6946C80.984 9.91259 80.2571 7.73555 79.1774 6.0844M70.5935 39.912C65.1476 38.0977 60.2566 21.515 58.4918 13.4504C58.2424 12.2039 58.3063 11.0035 58.6194 9.87817M88.7462 7.62976C93.6325 10.3378 98.3983 16.3097 102.361 27.0604C103.187 29.3015 103.704 31.3447 103.954 33.2045M88.7462 7.62976C93.273 -0.279326 105.791 -3.56567 106.899 11.9389C107.495 20.2721 106.098 27.6681 103.954 33.2045M88.7462 7.62976C85.5443 5.8552 82.2906 5.48218 79.1774 6.0844M103.954 33.2045C104.055 33.9585 104.112 34.6823 104.128 35.377C107.573 42.4332 114.894 64.3761 108.412 71.6651C102.361 78.4694 100.848 67.885 105.386 67.129C107.655 63.3488 105.876 51.1024 101.604 44.4493C97.2471 50.1747 88.0127 50.7669 80.4263 50.0304C80.4263 50.0304 81.1828 62.9759 81.1828 66C81.1828 69.0241 83.4517 83 81.1828 83H72.8457C71.0305 41.8721 67.5512 64.8576 66.0385 83H57.7353C59 51 27.5 51 28.9933 83L19.1606 83C17.3453 41.8721 12.3533 65 12.3533 83L1.00799 83C0.78702 43.905 4.78737 1.35457 58.6194 9.87817M58.6194 9.87817C60.7174 2.33891 74.0017 -1.83048 79.1774 6.0844" stroke="black"/>
</g>
</svg>
