<svg width="86" height="114" viewBox="0 0 86 114" fill="none" xmlns="http://www.w3.org/2000/svg">
<path d="M1.888 101.8H10.08V102.808H3.056V106.472H6.72C8.04267 106.472 9.04533 106.744 9.728 107.288C10.4213 107.832 10.768 108.621 10.768 109.656C10.768 110.733 10.3947 111.56 9.648 112.136C8.912 112.712 7.85067 113 6.464 113H1.888V101.8ZM6.448 112.056C7.48267 112.056 8.26133 111.859 8.784 111.464C9.31733 111.069 9.584 110.483 9.584 109.704C9.584 108.936 9.32267 108.365 8.8 107.992C8.288 107.608 7.504 107.416 6.448 107.416H3.056V112.056H6.448ZM28.9936 101.8L23.9056 111.224C23.543 111.896 23.1163 112.397 22.6256 112.728C22.1456 113.048 21.6176 113.208 21.0416 113.208C20.615 113.208 20.1563 113.107 19.6656 112.904L20.0016 111.944C20.3856 112.093 20.7376 112.168 21.0576 112.168C21.7936 112.168 22.3963 111.768 22.8656 110.968L23.1856 110.424L18.6416 101.8H19.9056L23.8096 109.384L27.8096 101.8H28.9936ZM41.5863 107.864H39.0263V113H37.8743V101.8H39.0263V106.824H41.5863L45.3783 101.8H46.6583L42.4983 107.24L46.8983 113H45.5383L41.5863 107.864ZM64.7607 101.8V113H63.5927V102.824H58.1847L58.0567 106.568C58.0034 108.115 57.8754 109.363 57.6727 110.312C57.4807 111.251 57.1821 111.955 56.7767 112.424C56.3714 112.883 55.8327 113.112 55.1607 113.112C54.8727 113.112 54.5741 113.075 54.2647 113L54.3607 111.944C54.5421 111.987 54.7181 112.008 54.8887 112.008C55.3581 112.008 55.7367 111.821 56.0247 111.448C56.3234 111.075 56.5474 110.499 56.6967 109.72C56.8461 108.931 56.9474 107.891 57.0007 106.6L57.1607 101.8H64.7607ZM83.5153 101.8V113H82.3473V109.608H79.0033C78.8539 109.608 78.6406 109.597 78.3633 109.576L76.0113 113H74.7473L77.2913 109.368C76.4699 109.123 75.8406 108.691 75.4033 108.072C74.9659 107.443 74.7473 106.675 74.7473 105.768C74.7473 104.509 75.1419 103.533 75.9313 102.84C76.7313 102.147 77.8086 101.8 79.1633 101.8H83.5153ZM75.9313 105.736C75.9313 106.653 76.1979 107.363 76.7313 107.864C77.2753 108.355 78.0646 108.6 79.0993 108.6H82.3473V102.824H79.2113C78.1659 102.824 77.3553 103.075 76.7793 103.576C76.2139 104.067 75.9313 104.787 75.9313 105.736Z" fill="black"/>
<path d="M43.0314 2C39.9333 2 36.9798 2.6195 34.2879 3.74143L42.8981 12.3553L51.586 3.66369C48.9451 2.59092 46.0572 2 43.0314 2Z" fill="#B49988"/>
<path d="M34.2879 3.74143C26.0619 7.16991 20.2793 15.2903 20.2793 24.7618C20.2793 27.5039 20.764 30.1327 21.6523 32.5672C22.7427 35.5558 24.4414 38.2516 26.5986 40.5046C30.7401 44.8302 36.5713 47.5237 43.0314 47.5237C49.6246 47.5237 55.5628 44.718 59.7182 40.235C61.7549 38.0377 63.3632 35.4375 64.4106 32.5672C65.2988 30.1327 65.7835 27.5039 65.7835 24.7618C65.7835 15.2179 59.9122 7.04594 51.586 3.66369L42.8981 12.3553L34.2879 3.74143Z" fill="#D9C8BD"/>
<path d="M21.6523 32.5672C18.4059 37.6016 16.4873 43.8239 16.4873 50.5586C16.4873 61.3811 21.4418 70.8804 28.899 76.2534L43.0314 90.3918L57.1638 76.2534C64.621 70.8804 69.5755 61.3811 69.5755 50.5586C69.5755 43.8239 67.6569 37.6016 64.4106 32.5672C63.3632 35.4375 61.7549 38.0377 59.7182 40.235C61.1678 43.3028 61.9915 46.8199 61.9915 50.5586C61.9915 62.5011 53.5876 72.1824 43.221 72.1824C32.8544 72.1824 24.4505 62.5011 24.4505 50.5586C24.4505 46.9289 25.2268 43.5082 26.5986 40.5046C24.4414 38.2516 22.7427 35.5558 21.6523 32.5672Z" fill="#B49988"/>
<path d="M43.221 72.1824C53.5876 72.1824 61.9915 62.5011 61.9915 50.5586C61.9915 46.8199 61.1678 43.3028 59.7182 40.235C55.5628 44.718 49.6246 47.5237 43.0314 47.5237C36.5713 47.5237 30.7401 44.8302 26.5986 40.5046C25.2268 43.5082 24.4505 46.9289 24.4505 50.5586C24.4505 62.5011 32.8544 72.1824 43.221 72.1824Z" fill="#D9C8BD"/>
<path d="M19.2793 24.7618C19.2793 27.4479 19.7252 30.0317 20.5477 32.442C17.3566 37.5642 15.4873 43.8181 15.4873 50.5586C15.4873 61.6483 20.5497 71.4351 28.2484 77.017L42.3241 91.0988L43.0314 91.8064L43.7387 91.0988L57.8144 77.017C65.5131 71.4351 70.5755 61.6483 70.5755 50.5586C70.5755 43.8181 68.7062 37.5643 65.5151 32.442C66.3376 30.0317 66.7835 27.4479 66.7835 24.7618C66.7835 14.7973 60.6528 6.26741 51.9623 2.73721C49.2039 1.61671 46.1884 1 43.0314 1C39.7989 1 36.7148 1.64656 33.9032 2.81839C25.3175 6.3968 19.2793 14.8729 19.2793 24.7618Z" stroke="#75482C" stroke-width="2"/>
<path d="M45.4391 25.3479C44.3338 27.5866 43.4941 29.8506 42.8647 31.7294C42.2353 29.8506 41.3956 27.5866 40.2903 25.3479M45.4391 25.3479C47.95 20.2619 51.8314 15.7317 57.7294 18.5039C57.7294 21.7358 55.3742 28.4278 45.9535 25.538L45.4391 25.3479ZM40.2903 25.3479C37.7794 20.2619 33.898 15.7317 28 18.5039C28 21.7358 30.3552 28.4278 39.7759 25.538L40.2903 25.3479Z" stroke="#4F301D" stroke-width="3" stroke-linecap="round" stroke-linejoin="round"/>
<path d="M19.1549 81.6249C14.573 86.7291 12.5367 90.8125 19.6638 100L26.2822 99.4896C26.2822 99.1493 26.2822 96.5292 24.2458 94.8958C22.2095 93.2625 21.7002 92.1736 22.2093 91.8333C27.3004 87.7499 36.3819 81.0417 43.5092 83.5938C46.0547 84.7848 49.211 84.0021 53.691 83.5938C57.5321 83.2437 64.7662 85.6201 68.7837 87.0557C69.6732 87.3736 70.6346 86.8133 70.7895 85.8815C70.9108 85.1517 70.484 84.4471 69.7724 84.2449C67.9337 83.7225 64.3599 82.7949 58.7818 81.5521C50.1274 77.4687 47.6639 80.0936 37.9912 79.0727C30.253 78.2561 21.8699 84.5172 18.6456 87.7499C16.202 89.3832 18.1367 82.6457 20.1731 81.6249H19.1549Z" fill="#362113" stroke="#362113" stroke-linecap="round" stroke-linejoin="round"/>
<path d="M38.9478 74.4858L42.0106 79.0799L38.9477 80.6113L35.885 79.0799L38.9478 74.4858Z" fill="#75482C"/>
<path d="M47.115 74.4858L50.1778 79.0799L47.115 80.6113L44.0522 79.0799L47.115 74.4858Z" fill="#75482C"/>
</svg>
