<svg width="47" height="47" viewBox="0 0 47 47" fill="none" xmlns="http://www.w3.org/2000/svg">
<g id="TG">
<rect id="Rectangle 63" width="47" height="47" rx="5" fill="#2AB5F6"/>
<path id="Vector" d="M33.9745 10.2501C33.9745 10.2501 36.8031 9.02411 36.5665 12.0012C36.4886 13.2271 35.7816 17.5184 35.2312 22.1592L33.3454 35.9077C33.3454 35.9077 33.1881 37.9218 31.7734 38.2722C30.3595 38.6218 28.2378 37.0463 27.8446 36.6959C27.5301 36.4329 21.9514 32.492 19.987 30.5661C19.4365 30.0401 18.8075 28.9898 20.0656 27.7638L28.3157 19.0065C29.2586 17.9562 30.2015 15.5043 26.2727 18.4814L15.2711 26.8C15.2711 26.8 14.0137 27.6764 11.6568 26.8882L6.54847 25.1363C6.54847 25.1363 4.6627 23.823 7.88453 22.5096C15.7429 18.394 25.4084 14.1909 33.973 10.2501H33.9745Z" fill="white"/>
</g>
</svg>
