<svg width="47" height="47" viewBox="0 0 47 47" fill="none" xmlns="http://www.w3.org/2000/svg">
<g id="VK">
<rect id="Rectangle 63" width="47" height="47" rx="5" fill="#2264B1"/>
<path id="Vector" d="M41.3908 35.1639H37.0129C35.3566 35.1639 34.8576 33.8561 31.8886 30.9598C29.2937 28.5218 28.1978 28.2187 27.5414 28.2187C26.6336 28.2187 26.3861 28.4619 26.3861 29.68V33.5193C26.3861 34.5577 26.0406 35.1658 23.2577 35.1658C20.5579 34.989 17.9397 34.1894 15.619 32.8329C13.2983 31.4765 11.3413 29.6019 9.9093 27.3636C6.50913 23.2381 4.14331 18.396 3 13.2224C3 12.5826 3.2495 12.0025 4.50085 12.0025H8.87674C10.0014 12.0025 10.4064 12.4909 10.8478 13.6191C12.9724 19.7149 16.5979 25.0174 18.07 25.0174C18.6342 25.0174 18.8799 24.7741 18.8799 23.4027V17.1235C18.6937 14.259 17.1334 14.0176 17.1334 12.9811C17.1531 12.7076 17.2814 12.4524 17.4911 12.2697C17.7007 12.087 17.9752 11.9912 18.2561 12.0025H25.1347C26.0751 12.0025 26.3861 12.4591 26.3861 13.5555V22.0312C26.3861 22.9462 26.7891 23.2493 27.0732 23.2493C27.6374 23.2493 28.0712 22.9462 29.1056 21.9395C31.3231 19.3032 33.1347 16.3661 34.4834 13.2206C34.6214 12.8429 34.8824 12.5196 35.2265 12.3001C35.5706 12.0805 35.9789 11.9767 36.3892 12.0044H40.767C42.0798 12.0044 42.3581 12.6443 42.0798 13.5574C40.4875 17.0345 38.5173 20.3351 36.203 23.4027C35.7309 24.1043 35.5428 24.4692 36.203 25.2924C36.6368 25.9323 38.1722 27.1822 39.2028 28.3703C40.7037 29.8297 41.9493 31.5173 42.8916 33.3659C43.2678 34.5559 42.6402 35.1639 41.3908 35.1639Z" fill="white"/>
</g>
</svg>
