<svg width="47" height="47" viewBox="0 0 47 47" fill="none" xmlns="http://www.w3.org/2000/svg">
<g id="Wats Up">
<rect id="Rectangle 62" width="46.5341" height="46.5341" rx="5" fill="#3FC250"/>
<path id="Vector" d="M30.4214 26.5832C30.0105 26.3872 28.0425 25.407 27.6749 25.2545C27.3072 25.102 27.0477 25.0584 26.7666 25.4723C26.4854 25.8862 25.7285 26.7793 25.4906 27.0624C25.2527 27.3456 25.0364 27.3674 24.6255 27.0624C23.4453 26.5854 22.3554 25.9075 21.4032 25.0585C20.5413 24.2411 19.8116 23.293 19.2406 22.2485C19.0027 21.8564 19.2406 21.6386 19.4136 21.4208C19.5866 21.203 19.8029 20.9634 20.0191 20.7238C20.1773 20.5166 20.3081 20.2896 20.4084 20.0485C20.462 19.9364 20.4899 19.8136 20.4899 19.6891C20.4899 19.5647 20.462 19.4418 20.4084 19.3297C20.4084 19.1337 19.5001 17.1515 19.1541 16.3455C18.808 15.5396 18.5053 15.6485 18.2674 15.6485H17.4023C16.9902 15.6647 16.6013 15.8448 16.321 16.1495C15.8685 16.5844 15.51 17.1088 15.2682 17.6898C15.0263 18.2708 14.9061 18.8958 14.9153 19.5257C15.0259 21.0722 15.5905 22.5507 16.5373 23.7733C18.2747 26.3729 20.6516 28.4743 23.4361 29.8723C24.3877 30.2862 25.123 30.5258 25.7069 30.7219C26.5268 30.9715 27.3935 31.0237 28.2372 30.8743C28.7975 30.7598 29.3285 30.5306 29.7972 30.2009C30.266 29.8711 30.6624 29.4479 30.9621 28.9575C31.2115 28.3518 31.2936 27.6895 31.2 27.0406C31.0918 26.8882 30.8323 26.7793 30.4214 26.5832Z" fill="white"/>
<path id="Vector_2" d="M34.4656 11.7491C32.9699 10.2284 31.1871 9.02484 29.2222 8.20929C27.2574 7.39373 25.1503 6.98274 23.0252 7.00056C20.2101 7.01539 17.4481 7.7739 15.0151 9.20031C12.5821 10.6267 10.5632 12.6711 9.16013 15.1293C7.75706 17.5875 7.01888 20.3735 7.01932 23.2089C7.01976 26.0444 7.75881 28.8301 9.16264 31.2879L7 39.674L15.5208 37.4958C17.8764 38.7869 20.5164 39.461 23.1982 39.4562H23.0252C26.2214 39.4772 29.3514 38.5389 32.016 36.761C34.6806 34.9831 36.7592 32.4461 37.9865 29.4736C39.2139 26.5011 39.5345 23.2277 38.9074 20.071C38.2803 16.9142 36.7339 14.0171 34.4656 11.7491ZM23.0252 36.6681C20.6258 36.67 18.2711 36.015 16.2129 34.773L15.7371 34.4899L10.6765 35.8186L12.0173 30.8522L11.7146 30.3512C9.98738 27.5496 9.3413 24.207 9.89891 20.9574C10.4565 17.7078 12.179 14.7775 14.7396 12.7223C17.3002 10.6671 20.5206 9.63016 23.79 9.80812C27.0594 9.98608 30.1502 11.3666 32.4759 13.6877C33.7228 14.9334 34.711 16.4166 35.383 18.0509C36.0551 19.6851 36.3975 21.4377 36.3903 23.2066C36.3846 26.775 34.9746 30.1957 32.4694 32.7189C29.9642 35.2422 26.5681 36.6623 23.0252 36.6681Z" fill="white"/>
</g>
</svg>
