<svg width="47" height="47" viewBox="0 0 47 47" fill="none" xmlns="http://www.w3.org/2000/svg">
<g id="YT">
<rect id="Rectangle 64" width="47" height="47" rx="5" fill="#D21B1B"/>
<path id="Vector" d="M19.8 27.8276L28.104 23.0793L19.8 18.331V27.8276ZM38.296 15.4346C38.504 16.1785 38.648 17.1756 38.744 18.4418C38.856 19.708 38.904 20.8001 38.904 21.7498L39 23.0793C39 26.5455 38.744 29.0938 38.296 30.724C37.896 32.1485 36.968 33.0665 35.528 33.4622C34.776 33.6679 33.4 33.8104 31.288 33.9054C29.208 34.0162 27.304 34.0636 25.544 34.0636L23 34.1586C16.296 34.1586 12.12 33.9054 10.472 33.4622C9.032 33.0665 8.104 32.1485 7.704 30.724C7.496 29.9801 7.352 28.983 7.256 27.7168C7.144 26.4506 7.096 25.3585 7.096 24.4088L7 23.0793C7 19.6131 7.256 17.0648 7.704 15.4346C8.104 14.0101 9.032 13.0921 10.472 12.6964C11.224 12.4907 12.6 12.3482 14.712 12.2532C16.792 12.1424 18.696 12.095 20.456 12.095L23 12C29.704 12 33.88 12.2532 35.528 12.6964C36.968 13.0921 37.896 14.0101 38.296 15.4346Z" fill="white"/>
</g>
</svg>
